<svg width="164" height="31" viewBox="0 0 164 31" fill="none" xmlns="http://www.w3.org/2000/svg">
<mask id="mask0" style="mask-type:alpha" maskUnits="userSpaceOnUse" x="0" y="0" width="164" height="31">
<path d="M14.8383 13.2824L11.4063 12.5757C8.07526 11.8689 6.66209 10.7582 6.66209 8.94076C6.66209 6.71943 8.6809 5.20489 11.6082 5.20489C14.5355 5.20489 16.6552 6.71943 16.8571 9.04173H22.5098C22.4088 4.09423 17.9674 0.560303 11.6082 0.560303C5.04703 0.560303 0.706585 4.09423 0.706585 9.4456C0.706585 13.7873 3.2301 16.5135 8.47902 17.6241L12.2138 18.4319C15.7467 19.2396 17.1599 20.3503 17.1599 22.1677C17.1599 24.3891 14.9392 26.0046 11.8101 26.0046C8.37808 26.0046 6.05644 24.49 5.75362 22.0668H0C0.201881 27.4181 4.64327 30.7501 11.5072 30.7501C18.674 30.7501 23.1154 27.2162 23.1154 21.461C23.1154 17.0183 20.6928 14.595 14.8383 13.2824Z" fill="black"/>
<path d="M38.7616 1.26685H26.7497V30.0431H32.8061V20.9559H38.4588C44.5153 20.9559 48.7548 17.0181 48.7548 11.1618C48.7548 5.20465 44.7171 1.26685 38.7616 1.26685ZM37.1466 16.2103H32.8061V6.11337H37.1466C40.5786 6.11337 42.5974 7.93082 42.5974 11.2628C42.5974 14.4938 40.5786 16.2103 37.1466 16.2103Z" fill="black"/>
<path d="M104.474 10.4551C104.474 4.80077 100.639 1.26685 94.2793 1.26685H82.2673V30.0431H88.3238V19.5423H93.2699L98.6197 30.0431H105.383L99.3263 18.6336C102.556 17.321 104.474 14.09 104.474 10.4551ZM93.4717 14.9987H88.2228V5.91144H93.4717C96.5 5.91144 98.3169 7.62791 98.3169 10.4551C98.3169 13.3832 96.5 14.9987 93.4717 14.9987Z" fill="black"/>
<path d="M106.796 6.21434H115.476V30.0431H121.432V6.21434H130.113V1.26685H106.796V6.21434Z" fill="black"/>
<path d="M139.4 1.26685H133.344V30.0431H139.4V1.26685Z" fill="black"/>
<path d="M163.322 6.21434V1.26685H144.345V30.0431H163.322V25.0956H150.301V17.8258H162.615V13.1812H150.301V6.21434H163.322Z" fill="black"/>
</mask>
<g mask="url(#mask0)">
<rect y="0.560303" width="163.322" height="30.1898" fill="#FBFCF8"/>
</g>
<path d="M77.5662 23.8146C78.0414 23.096 78.3977 22.3774 78.7541 21.5989C78.5759 22.0181 78.3383 22.4971 78.7541 21.5989C79.0511 20.8803 78.9323 21.2396 78.7541 21.5989C80.0014 18.7843 80.3577 15.5506 79.7638 12.5564C79.1698 9.56217 77.685 6.8075 75.5468 4.65168C73.2305 2.3162 70.2014 0.819099 66.9942 0.39991C64.1433 -0.0192779 61.233 0.459795 58.6197 1.59759C55.65 2.97493 53.1555 5.3104 51.5519 8.24472C50.1264 10.9395 49.4731 14.1134 49.8294 17.1674C50.1264 20.1018 51.3143 22.8564 53.1555 25.132C55.1155 27.5274 57.7882 29.3239 60.7579 30.1623C63.6681 31.0007 66.7566 30.9408 69.6075 29.9826C72.8741 28.9047 75.725 26.689 77.5662 23.8146Z" fill="#FBFCF8"/>
<path d="M75.9005 22.6761C76.2569 22.0772 76.6133 21.4784 76.9102 20.8197C76.732 21.179 76.5539 21.5982 76.9102 20.8197C77.1478 20.2208 77.029 20.5202 76.9102 20.8197C77.9793 18.4243 78.2169 15.7295 77.7417 13.1545C77.2666 10.6394 76.0193 8.30389 74.1781 6.44748C72.2181 4.47131 69.6642 3.21374 66.9321 2.85444C64.5564 2.49514 62.0618 2.85444 59.8643 3.87247C57.3698 5.01027 55.2316 7.04632 53.9249 9.50157C52.6777 11.7772 52.2025 14.4121 52.4995 16.9871C52.7371 19.4423 53.7467 21.7778 55.291 23.6941C56.954 25.7301 59.211 27.2272 61.7055 27.9459C64.1406 28.6645 66.7539 28.6046 69.1891 27.7662C71.9212 26.9278 74.2969 25.0714 75.9005 22.6761Z" fill="#F3F3F3"/>
<g clip-path="url(#clip0)">
<path d="M77.5427 15.3263C77.3807 15.3263 77.2187 15.2722 77.0837 15.1911C76.8947 15.0558 76.8137 14.8664 76.7867 14.7852C76.7867 14.677 76.7597 14.5959 76.7597 14.4876C76.7597 14.4065 76.8137 14.19 76.9757 14.0006C77.0837 13.8924 77.2457 13.8113 77.4077 13.7571C77.6507 13.703 77.8127 13.4595 77.7587 13.216C77.7047 12.9725 77.4617 12.8102 77.2187 12.8643C77.0567 12.8914 76.8947 12.8914 76.7327 12.8102C76.5167 12.702 76.4088 12.5397 76.3548 12.4585C76.3008 12.2962 76.2738 12.1338 76.2198 11.9715C76.2198 11.9715 76.1658 11.701 76.3278 11.4033C76.4088 11.2681 76.5437 11.1598 76.7057 11.0787C76.9487 10.9705 77.0297 10.6999 76.9487 10.4835C76.8137 10.2941 76.5437 10.1859 76.3278 10.2941C76.1658 10.3482 76.0038 10.3752 75.8418 10.3482C75.5178 10.267 75.3558 10.0506 75.3558 10.0506V10.0776C75.3018 9.96942 75.2478 9.8612 75.1938 9.78004C75.1668 9.67182 75.1398 9.48243 75.2208 9.26599C75.2748 9.10366 75.3828 8.96838 75.5178 8.88722C75.7338 8.75194 75.7608 8.45433 75.6258 8.26495C75.4908 8.04851 75.1938 8.02145 75.0048 8.15673C74.8698 8.23789 74.7078 8.31906 74.5458 8.292C74.2758 8.292 74.0868 8.15673 74.0328 8.10262C73.9518 7.9944 73.8438 7.88618 73.7629 7.77796L73.7899 7.80501C73.7899 7.80501 73.6279 7.58857 73.6549 7.23685C73.6819 7.07452 73.7629 6.91219 73.8708 6.80397C74.0328 6.61458 74.0328 6.34403 73.8438 6.15465C73.6549 5.99232 73.3849 5.99232 73.1959 6.1817C73.0879 6.28992 72.9259 6.39814 72.7639 6.4252C72.4399 6.47931 72.1969 6.34403 72.1969 6.34403L72.2239 6.37109C72.1429 6.31698 72.0619 6.23581 71.9809 6.1817C71.9269 6.12759 71.7919 5.96526 71.7649 5.66765C71.7379 5.50532 71.7919 5.34299 71.8729 5.20772C72.0079 4.99127 71.9269 4.72072 71.7109 4.58545C71.4949 4.45017 71.225 4.53134 71.09 4.74778C71.009 4.88305 70.874 4.99127 70.739 5.07244C70.469 5.18066 70.226 5.12655 70.172 5.0995C70.037 4.99127 69.902 4.93716 69.794 4.88305C69.794 4.88305 69.551 4.74778 69.443 4.42312C69.389 4.26079 69.389 4.09845 69.443 3.93612C69.524 3.69263 69.389 3.44913 69.146 3.36797C68.903 3.2868 68.66 3.42208 68.5791 3.66557C68.5251 3.8279 68.4171 3.96318 68.2821 4.0714C68.0661 4.23373 67.8501 4.23373 67.7691 4.23373C67.6341 4.20668 67.4991 4.17962 67.3641 4.15256H67.4721C67.4721 4.15256 67.2021 4.0714 67.0401 3.77379C66.9591 3.63852 66.9321 3.44913 66.9591 3.2868C66.9861 3.0433 66.7971 2.79981 66.5541 2.77275C66.3111 2.7457 66.0681 2.93508 66.0412 3.17858C66.0142 3.34091 65.9602 3.50324 65.8522 3.61146C65.6632 3.8279 65.4472 3.85496 65.3662 3.88201C65.2582 3.88201 65.1232 3.88201 65.0152 3.88201C64.9612 3.88201 64.7182 3.8279 64.5292 3.58441C64.4212 3.44913 64.3672 3.31386 64.3402 3.12447C64.3402 2.88097 64.1242 2.69159 63.8812 2.71864C63.6382 2.7457 63.4492 2.96214 63.4762 3.20563C63.5032 3.36797 63.4493 3.5303 63.3683 3.69263C63.2063 3.93612 63.0173 4.01729 62.9363 4.04434C62.8013 4.0714 62.6663 4.09845 62.5583 4.12551C62.4503 4.12551 62.2883 4.0714 62.0993 3.93612C61.9643 3.8279 61.8833 3.69263 61.8293 3.5303C61.7483 3.2868 61.5053 3.15152 61.2623 3.23269C61.0193 3.31386 60.8843 3.55735 60.9383 3.80085C60.9923 3.96318 60.9923 4.12551 60.9383 4.28784C60.8573 4.53134 60.6954 4.66661 60.6144 4.72072C60.4794 4.77483 60.3174 4.82894 60.1824 4.91011L60.2634 4.856C60.2634 4.856 59.9934 4.93716 59.6964 4.80189C59.5344 4.72072 59.4264 4.6125 59.3454 4.47723C59.2104 4.26079 58.9404 4.17962 58.7244 4.28784C58.5084 4.42312 58.4274 4.69367 58.5354 4.91011C58.6164 5.04539 58.6434 5.23477 58.6434 5.3971C58.5894 5.74882 58.4004 5.91115 58.4004 5.91115C58.3194 5.96526 58.2385 6.01937 58.1575 6.07348C58.1035 6.10054 57.8875 6.20876 57.5905 6.12759C57.4285 6.10054 57.2935 5.99232 57.1855 5.85704C57.0235 5.66765 56.7265 5.6406 56.5375 5.80293C56.3485 5.96526 56.3215 6.26287 56.4835 6.45225C56.5915 6.58753 56.6725 6.7228 56.6725 6.91219C56.6995 7.18274 56.5915 7.39918 56.5375 7.45329C56.4565 7.53446 56.3485 7.64268 56.2675 7.7509V7.72385C56.2675 7.72385 56.0515 7.91323 55.7275 7.91323C55.5656 7.91323 55.4036 7.85912 55.2686 7.7509C55.0796 7.58857 54.7826 7.64268 54.6206 7.83207C54.4586 8.02145 54.5126 8.31906 54.7016 8.48139C54.8366 8.58961 54.9446 8.72488 54.9716 8.88722C55.0526 9.13071 54.9986 9.3201 54.9716 9.42832C54.9176 9.50948 54.8636 9.59065 54.8366 9.67182C54.7826 9.72593 54.6206 9.88826 54.3506 9.91531C54.1886 9.94237 54.0266 9.91531 53.8646 9.83415C53.6486 9.72593 53.3786 9.80709 53.2706 10.0506C53.1626 10.267 53.2436 10.5376 53.4866 10.6458C53.6486 10.727 53.7566 10.8352 53.8376 10.9705C53.9456 11.1598 53.9456 11.3492 53.9456 11.4575C53.8646 11.6468 53.8106 11.8362 53.7296 12.0256L53.7566 11.9444C53.7566 11.9444 53.6486 12.1879 53.3246 12.3232C53.1626 12.3773 53.0007 12.4044 52.8387 12.3503C52.5957 12.2962 52.3527 12.4585 52.2987 12.702C52.2447 12.9455 52.4067 13.189 52.6497 13.2431C52.8117 13.2702 52.9467 13.3513 53.0547 13.4866C53.2166 13.676 53.2436 13.8654 53.2706 13.9736C53.2436 14.0818 53.2436 14.19 53.2166 14.2982C53.1896 14.3524 53.1086 14.5688 52.8657 14.7582C52.7307 14.8393 52.5687 14.8935 52.4067 14.8935C52.1637 14.8935 51.9477 15.0828 51.9477 15.3263C51.9477 15.5698 52.1367 15.7863 52.3797 15.7863C52.5417 15.7863 52.7037 15.8404 52.8387 15.9486C53.0547 16.1109 53.1356 16.3274 53.1356 16.4085C53.1356 16.5438 53.1626 16.6791 53.1626 16.8414C53.1626 16.9226 53.1086 17.139 52.9197 17.3284C52.8117 17.4366 52.6497 17.5178 52.4877 17.5449C52.2447 17.599 52.0827 17.8154 52.1097 18.086C52.1637 18.3295 52.3797 18.4918 52.6497 18.4647C52.8117 18.4377 52.9737 18.4647 53.1356 18.5188C53.3786 18.6271 53.4866 18.8165 53.5136 18.8976C53.5406 19.0329 53.5946 19.1682 53.6216 19.3034L53.5946 19.2223C53.5946 19.2223 53.6486 19.4928 53.4866 19.7904C53.4596 19.8446 53.3246 19.9528 53.1626 20.0339C52.9197 20.1422 52.8117 20.3857 52.9197 20.6292C53.0277 20.8726 53.2706 20.9809 53.5136 20.8726C53.6756 20.8185 53.8376 20.7915 53.9996 20.8185C54.2426 20.8726 54.4046 21.035 54.4586 21.0891C54.5396 21.2244 54.6206 21.3867 54.7016 21.522C54.7286 21.6302 54.7556 21.7925 54.6746 22.009C54.6206 22.1713 54.5126 22.3066 54.3776 22.3877C54.1346 22.523 54.1076 22.8206 54.2426 23.01C54.3776 23.1994 54.6746 23.2535 54.8636 23.1182C54.9986 23.0371 55.1606 22.9559 55.3226 22.983C55.4846 22.983 55.6196 23.0371 55.7275 23.0912C55.8625 23.2535 55.9705 23.3888 56.1055 23.5511C56.1595 23.6323 56.2135 23.8217 56.1865 24.0652C56.1595 24.2275 56.0785 24.3898 55.9705 24.498C55.8085 24.6874 55.8085 24.958 55.9975 25.1474C56.1865 25.3097 56.4565 25.3097 56.6455 25.1203C56.7535 25.0121 56.9155 24.9039 57.0775 24.8768C57.2395 24.8498 57.3745 24.8768 57.4825 24.9039C57.6445 25.0391 57.8065 25.1744 57.9685 25.2826C58.0225 25.3638 58.1035 25.5261 58.1305 25.7155C58.1575 25.8779 58.1035 26.0402 58.0225 26.1755C57.9145 26.3919 57.9685 26.6895 58.1845 26.7977C58.4004 26.933 58.6704 26.8518 58.8054 26.6354C58.8864 26.5001 59.0214 26.3919 59.1564 26.3107C59.3184 26.2296 59.4804 26.2296 59.5884 26.2566C59.7774 26.3648 59.9934 26.446 60.2094 26.5542C60.2904 26.6354 60.3984 26.7436 60.4524 26.933C60.5064 27.0953 60.5064 27.2577 60.4524 27.42C60.3714 27.6635 60.5064 27.907 60.7494 27.9882C60.9923 28.0693 61.2353 27.934 61.3163 27.6905C61.3703 27.5282 61.4783 27.3929 61.6133 27.2847C61.7483 27.1765 61.8833 27.1494 61.9913 27.1224C62.2073 27.1765 62.4233 27.2306 62.6663 27.2847C62.7473 27.3388 62.8823 27.4471 62.9633 27.6094C63.0443 27.7447 63.0713 27.934 63.0443 28.0964C63.0173 28.3399 63.2063 28.5834 63.4493 28.6104C63.6922 28.6375 63.9352 28.4481 63.9622 28.2046C63.9892 28.0423 64.0432 27.8799 64.1512 27.7717C64.2592 27.6364 64.3942 27.5823 64.4752 27.5553C64.6642 27.5553 64.8262 27.5553 65.0152 27.5553C65.0152 27.5553 65.0152 27.5553 65.0422 27.5553C65.1232 27.5823 65.3392 27.6364 65.5012 27.8258C65.6092 27.9611 65.6632 28.0964 65.6902 28.2858C65.7172 28.5293 65.9332 28.7186 66.1761 28.6916C66.4191 28.6645 66.6081 28.4481 66.5811 28.2046C66.5541 28.0423 66.6081 27.8799 66.6891 27.7176C66.8781 27.42 67.1211 27.3388 67.1211 27.3388H67.0941C67.2021 27.3118 67.3101 27.3118 67.4181 27.2847C67.4721 27.2847 67.7151 27.2847 67.9581 27.4741C68.0931 27.5823 68.1741 27.7176 68.2281 27.8799C68.3091 28.1234 68.5521 28.2587 68.795 28.1775C69.038 28.0964 69.173 27.8529 69.092 27.6094C69.038 27.4471 69.038 27.2847 69.092 27.1224C69.2 26.7977 69.443 26.6625 69.443 26.6625H69.416C69.551 26.6083 69.713 26.5272 69.848 26.4731C69.956 26.446 70.145 26.446 70.334 26.5542C70.496 26.6354 70.604 26.7436 70.685 26.8789C70.82 27.0953 71.09 27.1765 71.3059 27.0683C71.5219 26.933 71.6029 26.6624 71.4949 26.446C71.4139 26.3107 71.3869 26.1213 71.3869 25.959C71.4139 25.6885 71.5489 25.5261 71.6299 25.472C71.7919 25.3638 71.9809 25.2285 72.1429 25.1203C72.2509 25.0933 72.3859 25.0662 72.5749 25.1203C72.7369 25.1474 72.8719 25.2556 72.9799 25.3638C73.1419 25.5532 73.4389 25.5802 73.6279 25.4179C73.8169 25.2556 73.8439 24.958 73.6819 24.7686C73.5739 24.6333 73.4929 24.498 73.4929 24.3357C73.4659 24.0652 73.5739 23.8758 73.6279 23.7946C73.7089 23.7134 73.7899 23.6052 73.8708 23.5241C73.9518 23.4699 74.1138 23.3617 74.3838 23.3617C74.5458 23.3617 74.7078 23.4158 74.8428 23.5241C75.0318 23.6864 75.3288 23.6323 75.4908 23.4429C75.6528 23.2535 75.5988 22.9559 75.4098 22.7936C75.2748 22.6853 75.1668 22.5501 75.1398 22.3877C75.0318 22.0631 75.1668 21.8196 75.1668 21.8196L75.0048 22.036C75.1128 21.8466 75.2208 21.6843 75.3288 21.4949C75.3828 21.4408 75.5448 21.2785 75.8148 21.2244C75.9768 21.1973 76.1388 21.2244 76.3008 21.2785C76.5167 21.3867 76.7867 21.2785 76.8947 21.062C77.0027 20.8456 76.8947 20.575 76.6787 20.4668C76.5167 20.3857 76.4088 20.2774 76.3278 20.1422C76.1928 19.8987 76.2198 19.6822 76.2198 19.6011C76.2738 19.4658 76.3008 19.3576 76.3548 19.2223C76.4088 19.1411 76.5167 18.9788 76.7597 18.8706C76.9217 18.8165 77.0837 18.7894 77.2457 18.8165C77.4887 18.8706 77.7317 18.7082 77.7857 18.4647C77.8397 18.2212 77.6777 17.9777 77.4347 17.9236C77.2727 17.8966 77.1107 17.8154 77.0027 17.6801C76.8407 17.4908 76.7867 17.3014 76.7867 17.1931C76.8137 17.0579 76.8137 16.9226 76.8407 16.7873C76.8677 16.7062 76.9487 16.5168 77.1647 16.3544C77.2997 16.2462 77.4617 16.2192 77.6237 16.2192C77.8667 16.2192 78.0827 16.0298 78.0827 15.7592C77.9747 15.5428 77.7857 15.3263 77.5427 15.3263ZM66.5001 6.83102C66.5001 6.83102 70.712 6.88514 73.0339 11.4845L72.8449 11.8362L69.551 12.9184C69.389 12.9725 69.227 12.9996 69.065 12.9996C68.3901 13.0267 66.7971 12.8643 66.3381 10.8352C66.3111 10.727 66.3111 10.5917 66.3111 10.4564L66.2571 7.2098L66.5001 6.83102ZM64.9882 14.3794C65.7442 14.3794 66.3651 15.0017 66.3651 15.7592C66.3651 16.5168 65.7442 17.139 64.9882 17.139C64.2322 17.139 63.6112 16.5168 63.6112 15.7592C63.5842 15.0017 64.2052 14.3794 64.9882 14.3794ZM63.3413 6.83102L63.6112 7.10158V10.5917C63.6112 10.754 63.5842 10.9164 63.5572 11.0787C63.3683 11.728 62.7203 13.189 60.6414 12.9996C60.5064 12.9996 60.3984 12.9725 60.2904 12.9184L57.1855 11.9444L56.8885 11.5657C56.8885 11.5927 58.2654 7.61562 63.3413 6.83102ZM60.7494 19.4117L58.8324 22.036L58.3734 22.1984C58.3734 22.1984 55.0526 19.6011 55.9975 14.5417L56.3485 14.3794L59.6424 15.5157C59.8044 15.5698 59.9394 15.651 60.0744 15.7322C60.6144 16.1109 61.8023 17.2202 60.9383 19.1141C60.8843 19.1952 60.8034 19.3034 60.7494 19.4117ZM69.011 24.0922C64.4482 26.4731 60.9923 24.0381 60.9923 24.0381L61.0193 23.5511L62.9633 20.9538C63.0443 20.8456 63.1253 20.7644 63.2063 20.6833C64.7722 19.3034 66.1761 20.1151 66.6891 20.5209C66.8241 20.6292 66.9321 20.7374 67.0401 20.8726L69.092 23.6864L69.011 24.0922ZM71.6029 22.1713L71.144 22.009L69.227 19.3846C69.146 19.2764 69.092 19.1682 69.038 19.06C68.1741 17.1661 69.362 16.0839 69.902 15.7051C70.037 15.6239 70.199 15.5428 70.334 15.4887L73.6279 14.3524L73.9788 14.5147C74.9238 19.574 71.6029 22.1713 71.6029 22.1713Z" fill="#212121"/>
</g>
<defs>
<clipPath id="clip0">
<rect width="26" height="26" fill="white" transform="translate(51.9746 2.71875)"/>
</clipPath>
</defs>
</svg>
